<svg xmlns="http://www.w3.org/2000/svg" x="0px" y="0px"
width="130" height="130"
viewBox="0 0 172 172"
style=" fill:#000000;"><defs><linearGradient x1="60.46875" y1="73.72081" x2="60.46875" y2="115.53563" gradientUnits="userSpaceOnUse" id="color-1_43979_gr1"><stop offset="0" stop-color="#ffffff"></stop><stop offset="1" stop-color="#b8b8b8"></stop></linearGradient><linearGradient x1="86" y1="30.90625" x2="86" y2="141.35981" gradientUnits="userSpaceOnUse" id="color-2_43979_gr2"><stop offset="0" stop-color="#ffffff"></stop><stop offset="1" stop-color="#808080"></stop></linearGradient><linearGradient x1="142.4375" y1="30.90625" x2="142.4375" y2="141.35981" gradientUnits="userSpaceOnUse" id="color-3_43979_gr3"><stop offset="0" stop-color="#ffffff"></stop><stop offset="1" stop-color="#808080"></stop></linearGradient><linearGradient x1="26.875" y1="30.90625" x2="26.875" y2="141.35981" gradientUnits="userSpaceOnUse" id="color-4_43979_gr4"><stop offset="0" stop-color="#ffffff"></stop><stop offset="1" stop-color="#808080"></stop></linearGradient><linearGradient x1="112.875" y1="30.90625" x2="112.875" y2="141.35981" gradientUnits="userSpaceOnUse" id="color-5_43979_gr5"><stop offset="0" stop-color="#ffffff"></stop><stop offset="1" stop-color="#808080"></stop></linearGradient></defs><g fill="none" fill-rule="nonzero" stroke="none" stroke-width="1" stroke-linecap="butt" stroke-linejoin="miter" stroke-miterlimit="10" stroke-dasharray="" stroke-dashoffset="0" font-family="none" font-weight="none" font-size="none" text-anchor="none" style="mix-blend-mode: normal"><path d="M0,172v-172h172v172z" fill="none"></path><g><path d="M69.875,77.9375v34.9375c-10.38987,0 -18.8125,-8.42262 -18.8125,-18.8125c0,-10.38988 8.42263,-18.14062 18.8125,-18.14062" fill="url(#color-1_43979_gr1)"></path><path d="M155.875,86h-24.1875v-24.1875c0,-7.40944 -6.02806,-13.4375 -13.4375,-13.4375h-2.6875c0,-2.96431 -2.41069,-5.375 -5.375,-5.375h-5.375c-2.96431,0 -5.375,2.41069 -5.375,5.375h-6.12481l-3.53675,-10.61294c-1.10188,-3.29756 -4.17369,-5.51206 -7.64862,-5.51206h-24.50194c-3.47494,0 -6.54944,2.2145 -7.64862,5.51206l-3.53944,10.61294h-6.12481c0,-2.96431 -2.41069,-5.375 -5.375,-5.375h-5.375c-2.96431,0 -5.375,2.41069 -5.375,5.375h-2.6875c-7.40944,0 -13.4375,6.02806 -13.4375,13.4375v64.5c0,7.40944 6.02806,13.4375 13.4375,13.4375h80.625h53.75c4.44512,0 8.0625,-3.61738 8.0625,-8.0625v-37.625c0,-4.44513 -3.61737,-8.0625 -8.0625,-8.0625zM158.5625,94.0625v12.32487l-18.95225,18.95225l-13.14725,-11.26869c-3.17663,-2.72781 -7.98188,-2.54237 -10.94081,0.41925l-16.08469,16.08469v-36.51237c0,-1.48081 1.204,-2.6875 2.6875,-2.6875h53.75c1.4835,0 2.6875,1.20669 2.6875,2.6875zM130.57488,134.375h-27.33725l16.082,-16.08469c0.98631,-0.98631 2.58538,-1.04544 3.64156,-0.13975l12.8355,10.99994zM55.07225,39.46325c0.36819,-1.09919 1.39481,-1.83825 2.55044,-1.83825h24.50194c1.15831,0 2.18494,0.73906 2.55044,1.83825l2.97237,8.91175h-35.54487zM13.4375,126.3125v-13.4375h10.75v-5.375h-10.75v-5.375h10.75v-5.375h-10.75v-5.375h10.75v-5.375h-10.75v-5.375h10.75v-5.375h-10.75v-13.4375c0,-4.44512 3.61737,-8.0625 8.0625,-8.0625h13.4375h15.37519h39.12731h18.06h10.75c4.44512,0 8.0625,3.61738 8.0625,8.0625v24.1875h-24.1875c-1.30075,0 -2.5155,0.33862 -3.60394,0.88956c-3.21963,-12.84088 -14.82425,-22.38956 -28.64606,-22.38956c-16.29969,0 -29.5625,13.26281 -29.5625,29.5625c0,16.29969 13.26281,29.5625 29.5625,29.5625c9.9975,0 18.834,-5.00144 24.1875,-12.61781v20.68031c0,0.946 0.1935,1.84363 0.4945,2.6875h-73.057c-4.44513,0 -8.0625,-3.61737 -8.0625,-8.0625zM94.0625,94.0625c0,13.33538 -10.84944,24.1875 -24.1875,24.1875c-13.33806,0 -24.1875,-10.85212 -24.1875,-24.1875c0,-13.33538 10.84944,-24.1875 24.1875,-24.1875c13.33806,0 24.1875,10.85213 24.1875,24.1875zM155.875,134.375h-17.69987l20.38737,-20.38737v17.69987c0,1.48081 -1.204,2.6875 -2.6875,2.6875z" fill="url(#color-2_43979_gr2)"></path><path d="M137.0625,99.4375h10.75v5.375h-10.75z" fill="url(#color-3_43979_gr3)"></path><path d="M29.5625,59.125h-5.375c-2.96431,0 -5.375,2.41069 -5.375,5.375c0,2.96431 2.41069,5.375 5.375,5.375h5.375c2.96431,0 5.375,-2.41069 5.375,-5.375c0,-2.96431 -2.41069,-5.375 -5.375,-5.375z" fill="url(#color-4_43979_gr4)"></path><path d="M110.1875,69.875h5.375c2.96431,0 5.375,-2.41069 5.375,-5.375c0,-2.96431 -2.41069,-5.375 -5.375,-5.375h-5.375c-2.96431,0 -5.375,2.41069 -5.375,5.375c0,2.96431 2.41069,5.375 5.375,5.375z" fill="url(#color-5_43979_gr5)"></path></g></g></svg>